<?xml version="1.0" encoding="utf-8"?>
<!-- Uploaded to: SVG Repo, www.svgrepo.com, Generator: SVG Repo Mixer Tools -->
<svg width="800px" height="800px" viewBox="0 0 1024 1024" class="icon"  version="1.1" xmlns="http://www.w3.org/2000/svg"><path d="M597.3 719.9V533.4h141.9V232.2H405.1v178H238.4l7.4 418.1h493.4V719.9z" fill="#E1F0FF" /><path d="M606.4 543H807v161.2H606.4z" fill="#E1F0FF" /><path d="M219 384.8h26.7v443.5H219zM583.9 520.1h26.7v207h-26.7zM802.9 520.1h26.7v207h-26.7z" fill="#446EB1" /><path d="M583.9 700.4h245.8v26.7H583.9zM583.9 520.1h245.8v26.7H583.9zM219 802.5h517.8v25.8H219zM373.4 206.4h363.3v25.8H373.4z" fill="#446EB1" /><path d="M713.4 206.4h25.8v103.9h-25.8zM713.4 776.3h25.8v52h-25.8zM392.4 224.4l-19.2-18.1L219 384l19.2 18.1 154.2-177.7z" fill="#446EB1" /><path d="M379.7 214.9h25.4v177.6h-25.4z" fill="#446EB1" /><path d="M219 384.8h186.1v25.4H219zM759.3 510v-31.6c0-29-23.6-52.5-52.5-52.6-29 0-52.5 23.6-52.6 52.6V510h-26.3v-31.6c0-43.5 35.4-78.8 78.8-78.8 43.5 0 78.8 35.4 78.8 78.8V510h-26.2z" fill="#446EB1" /><path d="M692.7 599.4h43v43h-43z" fill="#6D9EE8" /></svg>